<?xml version="1.0" standalone="no"?>
<!DOCTYPE svg PUBLIC "-//W3C//DTD SVG 20010904//EN"
 "http://www.w3.org/TR/2001/REC-SVG-20010904/DTD/svg10.dtd">
<svg version="1.0" xmlns="http://www.w3.org/2000/svg"
 width="300.000000pt" height="300.000000pt" viewBox="0 0 300.000000 300.000000"
 preserveAspectRatio="xMidYMid meet">
<metadata>
Created by potrace 1.11, written by Peter Selinger 2001-2013
</metadata>
<g transform="translate(0.000000,300.000000) scale(0.100000,-0.100000)"
fill="#000000" stroke="none">
<path d="M1778 2542 c-37 -23 -39 -28 -54 -168 -16 -147 -43 -259 -89 -362
-38 -87 -23 -81 -166 -61 -81 12 -91 11 -154 -10 -72 -23 -198 -99 -189 -113
3 -4 -1 -8 -9 -8 -7 0 -52 -39 -98 -87 -101 -104 -152 -170 -234 -304 -6 -9
-27 -41 -47 -72 -21 -31 -38 -63 -38 -72 0 -8 -5 -15 -11 -15 -5 0 -7 -4 -4
-10 3 -5 2 -10 -2 -10 -17 0 -109 -198 -155 -330 -76 -223 -70 -399 16 -478
99 -90 227 -94 476 -15 169 53 580 268 580 303 0 5 4 9 9 8 8 -3 62 37 102 75
11 9 19 14 19 10 0 -9 20 10 115 104 79 78 105 108 105 122 0 6 4 11 9 11 28
0 101 174 101 242 0 51 -17 141 -32 174 -14 31 -7 55 24 73 14 9 52 33 83 54
84 58 212 114 311 138 49 11 101 28 116 37 77 45 58 173 -32 210 -29 12 -38
21 -33 32 3 8 8 31 10 50 7 64 -58 135 -121 133 -50 -2 -58 -6 -116 -60 -30
-29 -56 -50 -58 -49 -1 2 11 43 28 91 32 94 37 143 19 178 -23 44 -71 77 -112
77 -33 0 -88 -20 -82 -30 3 -4 -1 -10 -9 -13 -7 -3 -24 -38 -36 -79 -12 -40
-33 -91 -46 -113 l-24 -40 8 50 c4 28 7 101 7 163 l0 112 -38 35 c-31 29 -45
35 -80 34 -23 0 -54 -8 -69 -17z m114 -63 l31 -30 -7 -87 c-9 -105 -29 -212
-57 -308 -17 -56 -32 -84 -74 -130 l-52 -58 -41 18 c-23 11 -42 20 -42 21 0 1
16 39 36 84 50 116 84 258 91 380 5 82 10 108 25 123 26 26 55 22 90 -13z
m306 -125 c28 -32 28 -39 -4 -132 -61 -184 -140 -297 -282 -406 l-63 -48 -33
30 -33 29 69 84 c107 130 192 284 229 416 19 66 70 78 117 27z m229 -226 c30
-28 30 -69 0 -104 -16 -19 -47 -34 -106 -51 -46 -13 -118 -39 -159 -59 -42
-19 -74 -32 -71 -30 2 3 62 64 133 135 139 141 158 151 203 109z m106 -205 c9
-9 17 -30 17 -48 0 -41 -23 -61 -80 -70 -125 -21 -307 -103 -411 -187 -63 -51
-69 -54 -69 -37 0 7 -16 34 -36 61 -41 58 -48 46 84 135 101 67 213 117 335
149 95 24 130 24 160 -3z m-1000 -38 c208 -54 413 -262 456 -463 19 -89 14
-180 -13 -237 -126 -268 -668 -640 -1074 -736 -121 -29 -243 -24 -295 11 -92
63 -100 203 -25 439 28 90 111 272 175 386 141 250 369 507 516 580 59 29 80
35 136 35 37 0 93 -7 124 -15z"/>
<path d="M1322 1638 c-22 -22 -13 -37 36 -62 66 -33 164 -109 196 -151 15 -19
42 -51 60 -71 18 -19 38 -52 46 -72 14 -41 27 -53 47 -45 20 8 16 42 -14 92
-67 116 -185 233 -293 290 -67 36 -62 35 -78 19z"/>
<path d="M1116 1333 c-6 -15 8 -32 26 -33 4 0 24 -17 45 -37 20 -21 31 -29 23
-18 -14 19 -14 19 3 6 9 -7 17 -17 17 -21 0 -3 18 -27 41 -51 22 -24 56 -70
76 -101 19 -32 40 -58 47 -58 24 0 35 21 25 47 -18 49 -92 142 -132 169 -23
15 -48 35 -55 45 -12 17 -91 69 -104 69 -3 0 -9 -8 -12 -17z"/>
<path d="M909 1014 c-12 -15 -10 -20 15 -38 60 -43 104 -87 116 -116 13 -31
54 -43 63 -17 12 34 -88 154 -149 177 -32 13 -29 13 -45 -6z"/>
</g>
</svg>
