<?xml version="1.0" standalone="no"?>
<!DOCTYPE svg PUBLIC "-//W3C//DTD SVG 20010904//EN"
 "http://www.w3.org/TR/2001/REC-SVG-20010904/DTD/svg10.dtd">
<svg version="1.0" xmlns="http://www.w3.org/2000/svg"
 width="300.000000pt" height="300.000000pt" viewBox="0 0 300.000000 300.000000"
 preserveAspectRatio="xMidYMid meet">
<metadata>
Created by potrace 1.11, written by Peter Selinger 2001-2013
</metadata>
<g transform="translate(0.000000,300.000000) scale(0.100000,-0.100000)"
fill="#000000" stroke="none">
<path d="M1770 2530 c-32 -29 -33 -33 -41 -128 -13 -167 -35 -266 -92 -401
l-31 -73 -35 6 c-129 23 -161 26 -204 21 -87 -12 -198 -77 -301 -176 -96 -92
-220 -242 -209 -253 3 -3 2 -6 -4 -6 -15 0 -92 -112 -151 -220 -181 -327 -259
-608 -213 -768 15 -52 61 -107 113 -133 118 -60 353 -17 636 117 126 59 312
167 345 200 12 11 47 38 77 58 30 21 57 41 60 44 3 4 38 36 79 72 97 85 186
197 229 289 34 73 34 74 27 177 -5 69 -12 107 -21 115 -25 20 -16 53 24 84 20
16 39 30 42 30 3 1 25 14 50 29 84 54 205 106 305 131 83 20 105 30 129 56 24
27 28 38 23 75 -6 57 -29 91 -75 112 -20 9 -38 17 -40 18 -1 1 2 14 8 30 34
88 -55 187 -146 162 -16 -4 -54 -31 -83 -59 -29 -28 -55 -49 -57 -46 -3 3 7
40 21 83 15 44 29 99 32 124 5 42 2 48 -35 90 -37 42 -43 45 -90 44 -42 0 -54
-5 -75 -30 -14 -16 -30 -47 -37 -69 -13 -47 -42 -118 -51 -125 -3 -3 -11 -14
-18 -25 -12 -19 -12 -18 -7 5 2 14 8 75 11 136 9 132 0 167 -52 207 -50 37
-99 37 -143 -3z m121 -47 c9 -8 19 -25 21 -38 14 -72 -39 -383 -76 -453 -9
-15 -35 -49 -59 -76 l-43 -49 -41 22 -42 21 36 76 c46 100 80 238 93 377 9 93
15 115 32 130 22 19 51 15 79 -10z m305 -129 c9 -14 17 -37 16 -52 -2 -76
-130 -343 -182 -379 -12 -8 -31 -25 -43 -37 -12 -12 -46 -42 -74 -65 -56 -45
-75 -47 -108 -11 -16 18 -14 22 51 101 111 137 175 248 213 373 26 86 35 96
77 96 25 0 38 -7 50 -26z m229 -229 c55 -54 17 -115 -90 -145 -39 -10 -106
-34 -150 -53 l-80 -35 125 129 c135 139 152 148 195 104z m106 -206 c14 -14
19 -30 17 -52 -4 -37 -21 -47 -122 -71 -102 -24 -226 -77 -307 -132 -133 -91
-119 -89 -157 -27 -40 63 -41 61 58 128 90 60 213 117 320 149 107 32 163 33
191 5z m-960 -46 c187 -64 369 -256 408 -428 15 -69 21 -194 9 -201 -5 -4 -8
-15 -5 -25 7 -24 -53 -122 -122 -200 -205 -233 -659 -500 -975 -574 -78 -19
-207 -19 -249 -1 -150 64 -139 304 29 664 50 107 182 332 195 332 5 0 15 15
23 33 21 48 135 184 226 271 83 77 142 118 208 143 50 18 182 11 253 -14z"/>
<path d="M1322 1638 c-22 -22 -13 -37 36 -62 65 -34 145 -95 192 -149 22 -25
40 -48 40 -52 0 -3 13 -18 30 -31 17 -15 32 -39 36 -60 9 -51 64 -70 64 -22 0
17 -46 109 -72 143 -62 82 -173 177 -260 221 -55 28 -51 27 -66 12z"/>
<path d="M1096 1335 c-7 -20 0 -35 19 -35 19 0 149 -109 187 -157 16 -21 39
-55 49 -76 22 -43 43 -55 64 -37 18 15 8 42 -50 126 -43 63 -64 83 -162 154
-53 38 -98 49 -107 25z"/>
<path d="M905 1013 c-4 -13 2 -24 20 -38 69 -53 104 -88 115 -114 15 -36 34
-45 55 -25 13 14 13 19 -4 52 -11 20 -37 53 -58 73 -74 69 -114 86 -128 52z"/>
</g>
</svg>
